<svg width="15" height="15" viewBox="0 0 15 15" fill="none" xmlns="http://www.w3.org/2000/svg">
<g clip-path="url(#clip0_39_3819)">
<path d="M2.00516 6.83974H2.6363C4.12566 6.83974 5.33303 8.0221 5.33303 9.48061V10.8568C5.33303 11.5553 5.91122 12.1215 6.62445 12.1215C7.33768 12.1215 7.91587 11.5553 7.91587 10.8568V4.17603C7.91587 3.45938 8.50912 2.87842 9.24093 2.87842C9.97274 2.87842 10.566 3.45938 10.566 4.17603V5.5193C10.566 6.97781 11.7734 8.16017 13.2627 8.16017H13.8891M13.2289 6.83974L13.749 7.35987C14.1263 7.73714 14.3149 7.92577 14.3149 8.16017C14.3149 8.39458 14.1263 8.58321 13.749 8.96048L13.2289 9.48061M2.66538 8.16018L2.14525 7.64004C1.76798 7.26277 1.57935 7.07414 1.57935 6.83974C1.57935 6.60533 1.76798 6.4167 2.14525 6.03943L2.66538 5.5193" stroke="currentColor" stroke-opacity="0.75" stroke-linecap="round"/>
</g>
<defs>
<clipPath id="clip0_39_3819">
<rect width="14" height="14" fill="white" transform="translate(0.947021 0.5)"/>
</clipPath>
</defs>
</svg>
