<svg width="15" height="9" viewBox="0 0 15 9" fill="none" xmlns="http://www.w3.org/2000/svg">
<path d="M4.61528 2.68111C4.61758 2.643 4.58203 2.53277 4.55824 2.49926C4.39122 2.26574 4.01139 2.0317 3.86994 1.79101C3.77889 1.63601 3.89142 1.44572 4.0431 1.37948L10.2463 0.680041C15.6736 0.588306 15.6537 8.43745 10.2275 8.31843L4.04345 7.62058C3.35414 7.2029 4.6688 6.70621 4.61355 6.30413C4.57901 6.0522 4.22809 5.99387 4.02424 5.92558C2.83643 5.5286 1.63173 5.17766 0.443919 4.77966C0.147988 4.64589 0.165631 4.33001 0.462836 4.21338L4.42576 2.94072C4.51425 2.89519 4.60889 2.78112 4.61502 2.68086L4.61528 2.68111ZM8.90618 6.33617C9.59831 6.90042 10.6874 6.95261 11.4524 6.51142C13.4229 5.3748 12.7517 2.3756 10.4952 2.19396C8.22576 2.01156 7.10015 4.86417 8.90618 6.33617Z" fill="#452B0B"/>
</svg>
