<svg width="12" height="11" viewBox="0 0 12 11" fill="none" xmlns="http://www.w3.org/2000/svg">
<path fill-rule="evenodd" clip-rule="evenodd" d="M2.25154 3.80912C2.25154 2.79888 2.65286 1.83002 3.3672 1.11567C4.08155 0.401317 5.05042 0 6.06066 0C7.0709 0 8.03977 0.401317 8.75412 1.11567C9.46847 1.83002 9.86978 2.79888 9.86978 3.80912V4.23236C9.86978 5.4304 10.3212 6.52178 11.065 7.34737C11.1113 7.39872 11.1444 7.46064 11.1612 7.52771C11.1781 7.59478 11.1783 7.66496 11.1617 7.73212C11.1452 7.79927 11.1125 7.86135 11.0664 7.91292C11.0203 7.96449 10.9623 8.00398 10.8974 8.02794C10.0261 8.3496 9.11417 8.58661 8.1712 8.72938C8.19243 9.01952 8.15361 9.31092 8.05717 9.58538C7.96072 9.85984 7.80873 10.1115 7.61067 10.3245C7.41261 10.5376 7.17274 10.7076 6.90605 10.8238C6.63936 10.94 6.35157 11 6.06066 11C5.76975 11 5.48196 10.94 5.21527 10.8238C4.94858 10.7076 4.70871 10.5376 4.51065 10.3245C4.3126 10.1115 4.1606 9.85984 4.06416 9.58538C3.96771 9.31092 3.92889 9.01952 3.95012 8.72938C3.01994 8.58842 2.1065 8.3532 1.22392 8.02737C1.1591 8.00344 1.10113 7.96401 1.05506 7.91251C1.00899 7.86101 0.976231 7.79901 0.959643 7.73194C0.943055 7.66486 0.943142 7.59474 0.959896 7.52771C0.97665 7.46067 1.00956 7.39876 1.05576 7.34737C1.82707 6.49338 2.25328 5.3831 2.25154 4.23236V3.80912ZM4.79208 8.83152C4.78486 9.00261 4.81233 9.1734 4.87283 9.33361C4.93332 9.49381 5.0256 9.64012 5.14411 9.76374C5.26262 9.88735 5.40491 9.98572 5.56243 10.0529C5.71994 10.1201 5.88941 10.1548 6.06066 10.1548C6.23191 10.1548 6.40138 10.1201 6.5589 10.0529C6.71641 9.98572 6.8587 9.88735 6.97721 9.76374C7.09572 9.64012 7.188 9.49381 7.2485 9.33361C7.30899 9.1734 7.33646 9.00261 7.32924 8.83152C6.48523 8.90755 5.63609 8.90755 4.79208 8.83152Z" fill="#F7931A"/>
</svg>
