<svg width="11" height="11" viewBox="0 0 11 11" fill="none" xmlns="http://www.w3.org/2000/svg">
<path d="M10.0579 5.19303C10.0579 2.64672 7.99374 0.58252 5.44743 0.58252C2.90111 0.58252 0.836914 2.64672 0.836914 5.19303C0.836914 7.73935 2.90111 9.80355 5.44743 9.80355C6.21579 9.80355 6.94025 9.61559 7.57734 9.28315" stroke="#F7931A" stroke-width="0.9" stroke-linecap="round"/>
<path d="M4.29492 5.19302H6.31202M4.29492 5.19302V3.17592H5.44755M4.29492 5.19302V7.21012H5.44755M6.31202 5.19302C6.78946 5.19302 7.17649 4.74148 7.17649 4.18447C7.17649 3.62747 6.78946 3.17592 6.31202 3.17592H5.44755M6.31202 5.19302C6.78946 5.19302 7.17649 5.64457 7.17649 6.20157C7.17649 6.75858 6.78946 7.21012 6.31202 7.21012H5.44755M5.44755 7.21012V7.78644M5.44755 3.17592V2.59961" stroke="#F7931A" stroke-width="0.9" stroke-linecap="round"/>
<path d="M9.521 10.4095V10.4169M9.521 6.97656V9.20025" stroke="#F7931A" stroke-width="0.9" stroke-linecap="round"/>
</svg>
