<svg width="12" height="11" viewBox="0 0 12 11" fill="none" xmlns="http://www.w3.org/2000/svg">
<g clip-path="url(#clip0_24_2832)">
<path d="M9.19702 0.916626V1.83329M3.69702 0.916626V1.83329" stroke="#F7931A" stroke-width="0.9" stroke-linecap="round" stroke-linejoin="round"/>
<path d="M6.44492 5.95825H6.44904M6.44492 7.79158H6.44904M8.2762 5.95825H8.28031M4.61365 5.95825H4.61776M4.61365 7.79158H4.61776" stroke="#F7931A" stroke-width="0.9" stroke-linecap="round" stroke-linejoin="round"/>
<path d="M2.12878 3.66667H10.7653C10.7108 2.88131 10.5735 2.3696 10.2273 1.99542C9.65345 1.375 8.7298 1.375 6.88248 1.375H6.01165C4.16433 1.375 3.24067 1.375 2.66678 1.99542C2.32067 2.3696 2.1833 2.88131 2.12878 3.66667Z" fill="#F7931A"/>
<path d="M2.12878 3.66667L1.67986 3.6355C1.67122 3.75996 1.71463 3.88243 1.79974 3.97365C1.88485 4.06487 2.00402 4.11667 2.12878 4.11667V3.66667ZM10.7653 3.66667V4.11667C10.8901 4.11667 11.0093 4.06487 11.0944 3.97365C11.1795 3.88243 11.2229 3.75996 11.2143 3.6355L10.7653 3.66667ZM10.2273 1.99542L9.897 2.30099V2.30099L10.2273 1.99542ZM2.12878 3.66667V4.11667H10.7653V3.66667V3.21667H2.12878V3.66667ZM6.01165 1.375V1.825H6.88248V1.375V0.925H6.01165V1.375ZM10.8012 5.61149H10.3512V5.84685H10.8012H11.2512V5.61149H10.8012ZM6.88248 10.0833V9.63333H6.01165V10.0833V10.5333H6.88248V10.0833ZM2.0929 5.84685H2.5429V5.61149H2.0929H1.6429V5.84685H2.0929ZM6.01165 10.0833V9.63333C5.07427 9.63333 4.42012 9.63222 3.92641 9.56046C3.44947 9.49114 3.18835 9.36407 2.99713 9.15734L2.66678 9.46291L2.33644 9.76848C2.71911 10.1822 3.20676 10.3653 3.79695 10.4511C4.37037 10.5344 5.10171 10.5333 6.01165 10.5333V10.0833ZM2.0929 5.84685H1.6429C1.6429 6.83361 1.64208 7.61559 1.71807 8.22667C1.79526 8.84733 1.95838 9.35977 2.33644 9.76848L2.66678 9.46291L2.99713 9.15734C2.80129 8.94563 2.67748 8.64859 2.61119 8.1156C2.54372 7.57303 2.5429 6.85719 2.5429 5.84685H2.0929ZM10.8012 5.84685H10.3512C10.3512 6.85719 10.3504 7.57303 10.2829 8.1156C10.2166 8.64859 10.0928 8.94563 9.897 9.15734L10.2273 9.46291L10.5577 9.76848C10.9357 9.35977 11.0989 8.84733 11.1761 8.22667C11.252 7.61559 11.2512 6.83361 11.2512 5.84685H10.8012ZM6.88248 10.0833V10.5333C7.79242 10.5333 8.52375 10.5344 9.09717 10.4511C9.68737 10.3653 10.175 10.1822 10.5577 9.76848L10.2273 9.46291L9.897 9.15734C9.70578 9.36407 9.44466 9.49114 8.96772 9.56046C8.47401 9.63222 7.81986 9.63333 6.88248 9.63333V10.0833ZM6.88248 1.375V1.825C7.81986 1.825 8.47401 1.82611 8.96772 1.89787C9.44466 1.96719 9.70578 2.09426 9.897 2.30099L10.2273 1.99542L10.5577 1.68985C10.175 1.27616 9.68737 1.09301 9.09717 1.00723C8.52375 0.923887 7.79242 0.925 6.88248 0.925V1.375ZM10.8012 5.61149H11.2512C11.2512 4.62473 11.252 3.84274 11.1761 3.23166C11.0989 2.611 10.9357 2.09856 10.5577 1.68985L10.2273 1.99542L9.897 2.30099C10.0928 2.5127 10.2166 2.80974 10.2829 3.34273C10.3504 3.88531 10.3512 4.60115 10.3512 5.61149H10.8012ZM6.01165 1.375V0.925C5.10171 0.925 4.37037 0.923887 3.79695 1.00723C3.20676 1.09301 2.71911 1.27616 2.33644 1.68985L2.66678 1.99542L2.99713 2.30099C3.18835 2.09426 3.44947 1.96719 3.9264 1.89787C4.42012 1.82611 5.07427 1.825 6.01165 1.825V1.375ZM2.0929 5.61149H2.5429C2.5429 4.60115 2.54372 3.88531 2.61119 3.34273C2.67748 2.80974 2.80129 2.5127 2.99713 2.30099L2.66678 1.99542L2.33644 1.68985C1.95838 2.09856 1.79526 2.611 1.71807 3.23166C1.64208 3.84274 1.6429 4.62473 1.6429 5.61149H2.0929ZM10.7653 3.66667L11.2143 3.6355C11.1581 2.82661 11.0128 2.18187 10.5577 1.68985L10.2273 1.99542L9.897 2.30099C10.1341 2.55732 10.2635 2.93601 10.3164 3.69783L10.7653 3.66667ZM2.66678 1.99542L2.33644 1.68985C1.88132 2.18187 1.73601 2.82661 1.67986 3.6355L2.12878 3.66667L2.5777 3.69783C2.63058 2.93602 2.76002 2.55732 2.99713 2.30099L2.66678 1.99542Z" fill="#F7931A"/>
</g>
<defs>
<clipPath id="clip0_24_2832">
<rect width="11" height="11" fill="white" transform="translate(0.947021)"/>
</clipPath>
</defs>
</svg>
