<svg width="12" height="11" viewBox="0 0 12 11" fill="none" xmlns="http://www.w3.org/2000/svg">
<g clip-path="url(#clip0_80_1541)">
<path d="M6.4471 8.24996C5.83636 8.53521 5.03409 8.70829 4.15544 8.70829C3.66689 8.70829 3.20196 8.65478 2.78044 8.55824C2.50947 8.49617 2.37398 8.46514 2.21164 8.33668C2.11904 8.26342 2.00348 8.11839 1.95274 8.01178C1.86377 7.82485 1.86377 7.64359 1.86377 7.28106V2.34386C1.86377 1.89248 2.34045 1.58246 2.78044 1.68324C3.20196 1.77978 3.66689 1.83329 4.15544 1.83329C5.03409 1.83329 5.83636 1.66021 6.4471 1.37496C7.05785 1.08971 7.86011 0.916626 8.73877 0.916626C9.22732 0.916626 9.69225 0.970135 10.1138 1.06668C10.3847 1.12875 10.5202 1.15978 10.6826 1.28824C10.7752 1.3615 10.8907 1.50653 10.9415 1.61314C11.0304 1.80007 11.0304 1.98133 11.0304 2.34386V7.28106C11.0304 7.73244 10.5538 8.04246 10.1138 7.94168C9.69225 7.84513 9.22732 7.79163 8.73877 7.79163C7.86011 7.79163 7.05785 7.96471 6.4471 8.24996Z" stroke="#F7931A" stroke-width="0.9"/>
<path d="M1.86377 9.62504C2.47452 9.91029 3.27678 10.0834 4.15544 10.0834C5.03409 10.0834 5.83636 9.91029 6.4471 9.62504C7.05785 9.33979 7.86011 9.16671 8.73877 9.16671C9.61743 9.16671 10.4197 9.33979 11.0304 9.62504" stroke="#F7931A" stroke-width="0.9" stroke-linecap="round"/>
<path d="M7.59294 4.81246C7.59294 5.44529 7.07993 5.95829 6.4471 5.95829C5.81428 5.95829 5.30127 5.44529 5.30127 4.81246C5.30127 4.17963 5.81428 3.66663 6.4471 3.66663C7.07993 3.66663 7.59294 4.17963 7.59294 4.81246Z" stroke="#F7931A" stroke-width="0.9"/>
<path d="M3.46826 5.27087L3.46826 5.27499" stroke="#F7931A" stroke-width="0.9" stroke-linecap="round" stroke-linejoin="round"/>
<path d="M9.42627 4.35059L9.42627 4.3547" stroke="#F7931A" stroke-width="0.9" stroke-linecap="round" stroke-linejoin="round"/>
</g>
<defs>
<clipPath id="clip0_80_1541">
<rect width="11" height="11" fill="white" transform="translate(0.947266)"/>
</clipPath>
</defs>
</svg>
