<svg width="12" height="11" viewBox="0 0 12 11" fill="none" xmlns="http://www.w3.org/2000/svg">
<g clip-path="url(#clip0_24_2890)">
<path d="M5.5304 3.2207C5.75177 1.91281 6.89002 0.916748 8.26092 0.916748C9.79046 0.916748 11.0304 2.15669 11.0304 3.68623C11.0304 5.05712 10.0343 6.19537 8.72645 6.41675" stroke="#F7931A" stroke-width="0.9" stroke-linecap="round" stroke-linejoin="round"/>
<path d="M4.61365 10.0833C6.13243 10.0833 7.36365 8.85203 7.36365 7.33325C7.36365 5.81447 6.13243 4.58325 4.61365 4.58325C3.09486 4.58325 1.86365 5.81447 1.86365 7.33325C1.86365 8.85203 3.09486 10.0833 4.61365 10.0833Z" stroke="#F7931A" stroke-width="0.9" stroke-linecap="round" stroke-linejoin="round"/>
<path d="M1.86365 4.125C1.86365 2.60464 3.09329 1.375 4.61365 1.375L4.22079 2.16071" stroke="#F7931A" stroke-width="0.9" stroke-linecap="round" stroke-linejoin="round"/>
<path d="M11.0304 6.875C11.0304 8.39536 9.80075 9.625 8.2804 9.625L8.67325 8.83929" stroke="#F7931A" stroke-width="0.9" stroke-linecap="round" stroke-linejoin="round"/>
</g>
<defs>
<clipPath id="clip0_24_2890">
<rect width="11" height="11" fill="white" transform="translate(0.947021)"/>
</clipPath>
</defs>
</svg>
