<svg width="12" height="11" viewBox="0 0 12 11" fill="none" xmlns="http://www.w3.org/2000/svg">
<g clip-path="url(#clip0_80_2105)">
<path d="M7.36393 8.24996C9.38898 8.24996 11.0306 6.60834 11.0306 4.58329C11.0306 2.55825 9.38898 0.916626 7.36393 0.916626C5.33889 0.916626 3.69727 2.55825 3.69727 4.58329C3.69727 6.60834 5.33889 8.24996 7.36393 8.24996Z" stroke="#F7931A" stroke-width="0.9" stroke-linecap="round"/>
<path d="M2.36812 5.04163C2.04861 5.54879 1.86377 6.14931 1.86377 6.793C1.86377 8.61018 3.33693 10.0833 5.15417 10.0833C5.79781 10.0833 6.39829 9.89849 6.90544 9.57906" stroke="#F7931A" stroke-width="0.9" stroke-linecap="round"/>
<path d="M6.44727 4.58337H8.05143M6.44727 4.58337V2.97921H7.36393M6.44727 4.58337V6.18754H7.36393M8.05143 4.58337C8.43113 4.58337 8.73893 4.22427 8.73893 3.78129C8.73893 3.33831 8.43113 2.97921 8.05143 2.97921H7.36393M8.05143 4.58337C8.43113 4.58337 8.73893 4.94248 8.73893 5.38546C8.73893 5.82844 8.43113 6.18754 8.05143 6.18754H7.36393M7.36393 6.18754V6.64587M7.36393 2.97921V2.52087" stroke="#F7931A" stroke-width="0.9" stroke-linecap="round"/>
</g>
<defs>
<clipPath id="clip0_80_2105">
<rect width="11" height="11" fill="white" transform="translate(0.947266)"/>
</clipPath>
</defs>
</svg>
