<svg width="12" height="11" viewBox="0 0 12 11" fill="none" xmlns="http://www.w3.org/2000/svg">
<g clip-path="url(#clip0_24_2863)">
<path d="M2.7804 5.04163V6.87496C2.7804 8.38738 2.7804 9.14359 3.25025 9.61344C3.72009 10.0833 4.47631 10.0833 5.98873 10.0833H6.9054C8.41782 10.0833 9.17403 10.0833 9.64388 9.61344C10.1137 9.14359 10.1137 8.38738 10.1137 6.87496V5.04163" stroke="#F7931A" stroke-width="0.9" stroke-linecap="round" stroke-linejoin="round"/>
<path d="M2.32202 4.12492C2.32202 3.78223 2.32202 3.61088 2.41413 3.48325C2.47447 3.39964 2.56126 3.33021 2.66577 3.28194C2.82531 3.20825 3.03949 3.20825 3.46785 3.20825H9.42619C9.85455 3.20825 10.0687 3.20825 10.2283 3.28194C10.3328 3.33021 10.4196 3.39964 10.4799 3.48325C10.572 3.61088 10.572 3.78223 10.572 4.12492C10.572 4.46761 10.572 4.63896 10.4799 4.76659C10.4196 4.8502 10.3328 4.91963 10.2283 4.9679C10.0687 5.04159 9.85455 5.04159 9.42619 5.04159H3.46785C3.03949 5.04159 2.82531 5.04159 2.66577 4.9679C2.56126 4.91963 2.47447 4.8502 2.41413 4.76659C2.32202 4.63896 2.32202 4.46761 2.32202 4.12492Z" fill="#F7931A" stroke="#F7931A" stroke-width="0.9" stroke-linejoin="round"/>
<path d="M3.69702 1.73508C3.69702 1.28306 4.06346 0.916626 4.51547 0.916626H4.67916C5.65552 0.916626 6.44702 1.70812 6.44702 2.68448V3.20829H5.17024C4.3566 3.20829 3.69702 2.54871 3.69702 1.73508Z" stroke="#F7931A" stroke-width="0.9" stroke-linejoin="round"/>
<path d="M9.19702 1.73508C9.19702 1.28306 8.83059 0.916626 8.37857 0.916626H8.21488C7.23852 0.916626 6.44702 1.70812 6.44702 2.68448V3.20829H7.72381C8.53744 3.20829 9.19702 2.54871 9.19702 1.73508Z" stroke="#F7931A" stroke-width="0.9" stroke-linejoin="round"/>
<path d="M6.44702 5.04163L6.44702 10.0833" stroke="#F7931A" stroke-width="0.9" stroke-linecap="round" stroke-linejoin="round"/>
</g>
<defs>
<clipPath id="clip0_24_2863">
<rect width="11" height="11" fill="white" transform="translate(0.947021)"/>
</clipPath>
</defs>
</svg>
