<svg width="12" height="11" viewBox="0 0 12 11" fill="none" xmlns="http://www.w3.org/2000/svg">
<path d="M6.43865 2.0625C6.43865 1.81397 6.23718 1.6125 5.98865 1.6125C5.74012 1.6125 5.53865 1.81397 5.53865 2.0625H5.98865H6.43865ZM5.53865 8.70833C5.53865 8.95686 5.74012 9.15833 5.98865 9.15833C6.23718 9.15833 6.43865 8.95686 6.43865 8.70833H5.98865H5.53865ZM5.98865 2.0625H5.53865V8.70833H5.98865H6.43865V2.0625H5.98865Z" fill="#F7931A"/>
<path d="M4.8429 7.79163C3.62884 7.97362 2.7804 8.42028 2.7804 8.9039C2.7804 9.55526 4.31942 10.0833 6.2179 10.0833C8.11637 10.0833 9.6554 9.55526 9.6554 8.9039C9.6554 8.39039 8.69884 7.95353 7.36373 7.79163" stroke="#F7931A" stroke-width="0.9" stroke-linecap="round"/>
<path d="M8.37782 1.64075L7.96803 1.44091C7.07986 1.00776 6.63578 0.791187 6.31221 0.992384C5.98865 1.19358 5.98865 1.68629 5.98865 2.67172V5.49996L8.37782 4.3348C9.53504 3.77044 10.1136 3.48827 10.1136 2.98778C10.1136 2.48729 9.53504 2.20511 8.37782 1.64075Z" fill="#F7931A"/>
<path d="M7.96803 1.44091L7.77078 1.84537L7.96803 1.44091ZM8.37782 1.64075L8.18057 2.04522L8.37782 1.64075ZM5.98865 5.49996H5.53865C5.53865 5.65513 5.61859 5.79935 5.75018 5.88158C5.88176 5.96381 6.04643 5.97244 6.1859 5.90442L5.98865 5.49996ZM8.37782 4.3348L8.18057 3.93033L8.37782 4.3348ZM7.96803 1.44091L7.77078 1.84537L8.18057 2.04522L8.37782 1.64075L8.57507 1.23629L8.16528 1.03644L7.96803 1.44091ZM8.37782 1.64075L8.18057 2.04522C8.77412 2.33468 9.16806 2.52837 9.42066 2.70619C9.66513 2.87828 9.66365 2.95632 9.66365 2.98778H10.1136H10.5636C10.5636 2.51875 10.2729 2.20545 9.93872 1.97024C9.61272 1.74076 9.13874 1.51118 8.57507 1.23629L8.37782 1.64075ZM5.98865 5.49996L6.1859 5.90442L8.57507 4.73926L8.37782 4.3348L8.18057 3.93033L5.7914 5.09549L5.98865 5.49996ZM8.37782 4.3348L8.57507 4.73926C9.13874 4.46437 9.61272 4.23479 9.93872 4.00531C10.2729 3.7701 10.5636 3.45681 10.5636 2.98778H10.1136H9.66365C9.66365 3.01923 9.66513 3.09728 9.42066 3.26936C9.16806 3.44718 8.77412 3.64087 8.18057 3.93033L8.37782 4.3348ZM5.98865 2.67172H5.53865V5.49996H5.98865H6.43865V2.67172H5.98865ZM7.96803 1.44091L8.16528 1.03644C7.73467 0.826439 7.36609 0.645364 7.06427 0.54977C6.75591 0.452104 6.4034 0.40578 6.07459 0.610239L6.31221 0.992384L6.54983 1.37453C6.55445 1.37166 6.56106 1.36697 6.58798 1.36664C6.623 1.36622 6.68577 1.37395 6.79252 1.40776C7.01568 1.47844 7.31322 1.62223 7.77078 1.84537L7.96803 1.44091ZM5.98865 2.67172H6.43865C6.43865 2.16392 6.43985 1.83473 6.47418 1.60427C6.49059 1.4941 6.51112 1.43498 6.52664 1.40433C6.53846 1.38098 6.54527 1.37737 6.54983 1.37453L6.31221 0.992384L6.07459 0.610239C5.74527 0.815011 5.63163 1.15193 5.584 1.47166C5.53744 1.78421 5.53865 2.19409 5.53865 2.67172H5.98865Z" fill="#F7931A"/>
</svg>
