<svg width="15" height="15" viewBox="0 0 15 15" fill="none" xmlns="http://www.w3.org/2000/svg">
<path d="M7.94727 0.5C8.91516 0.500173 9.75397 1.10733 11.4316 2.32031L12.4404 3.04883C13.7892 4.02401 14.4636 4.51191 14.7676 5.22461C15.0716 5.93735 14.9483 6.74167 14.7012 8.34961L14.4902 9.7207C14.14 11.9997 13.9646 13.1394 13.1475 13.8193C12.33 14.4993 11.1344 14.5 8.74414 14.5H7.14941C4.75933 14.5 3.56455 14.4992 2.74707 13.8193C1.92957 13.1394 1.75361 12.0001 1.40332 9.7207L1.19336 8.34961C0.946262 6.74171 0.822023 5.93733 1.12598 5.22461C1.42998 4.51186 2.10515 4.02414 3.4541 3.04883L4.46191 2.32031C6.13989 1.10711 6.97917 0.5 7.94727 0.5ZM10.4805 10.6621C10.2939 10.4225 9.94864 10.3799 9.70898 10.5664C9.24768 10.9254 8.63112 11.1504 7.94629 11.1504C7.26167 11.1502 6.64574 10.9253 6.18457 10.5664C5.94495 10.38 5.59969 10.4227 5.41309 10.6621C5.22683 10.9017 5.26947 11.247 5.50879 11.4336C6.1666 11.9456 7.02123 12.2499 7.94629 12.25C8.87146 12.25 9.72683 11.9456 10.3848 11.4336C10.6241 11.2469 10.6669 10.9017 10.4805 10.6621Z" fill="currentColor" />
</svg>
