<svg width="13" height="11" viewBox="0 0 13 11" fill="none" xmlns="http://www.w3.org/2000/svg">
<path d="M7.54727 5.50003C7.54727 4.12959 6.27292 2.75135 4.71869 2.75135C4.53459 2.75135 3.92774 2.75135 3.77584 2.75135C2.21366 2.75135 0.947266 3.98198 0.947266 5.50003C0.947266 6.80815 1.88762 7.90287 3.14727 8.18062C3.34942 8.22522 3.5598 8.24871 3.77584 8.24871M5.34727 5.50003C5.34727 6.87046 6.62162 8.24871 8.17586 8.24871C8.35995 8.24871 8.96682 8.24871 9.11867 8.24871C10.6809 8.24871 11.9473 7.01808 11.9473 5.50003C11.9473 4.19191 11.0069 3.09721 9.74727 2.81945C9.54509 2.77488 9.33471 2.75134 9.11867 2.75134" stroke="#F7931A" stroke-width="0.9" stroke-linecap="round" stroke-linejoin="round"/>
</svg>
