<svg width="15" height="15" viewBox="0 0 15 15" fill="none" xmlns="http://www.w3.org/2000/svg">
<path d="M10.5261 9.52344C10.8327 9.52349 11.0817 9.77253 11.0818 10.0791C11.0817 10.3857 10.8327 10.6337 10.5261 10.6338C10.2196 10.6337 9.97059 10.3856 9.97046 10.0791C9.97056 9.77254 10.2196 9.52351 10.5261 9.52344Z" fill="currentColor" fill-opacity="0.75"/>
<path d="M5.36792 4.36523C5.67448 4.36531 5.9225 4.61434 5.92261 4.9209C5.92253 5.22748 5.6745 5.47551 5.36792 5.47559C5.06133 5.47552 4.81234 5.22748 4.81226 4.9209C4.81236 4.61433 5.06135 4.3653 5.36792 4.36523Z" fill="currentColor" fill-opacity="0.75"/>
<path fill-rule="evenodd" clip-rule="evenodd" d="M7.94702 0.5C11.247 0.5 12.8974 0.499259 13.9226 1.52441C14.9478 2.54959 14.947 4.20004 14.947 7.5C14.947 10.8 14.9478 12.4504 13.9226 13.4756C12.8974 14.5008 11.247 14.5 7.94702 14.5C4.64702 14.5 2.99661 14.5008 1.97144 13.4756C0.94628 12.4504 0.947021 10.8 0.947021 7.5C0.947021 4.20004 0.946262 2.54959 1.97144 1.52441C2.99662 0.499266 4.64705 0.5 7.94702 0.5ZM10.5261 8.42383C9.80495 8.42388 9.19341 8.88573 8.96655 9.5293H4.26245C3.95882 9.52936 3.71275 9.77548 3.71265 10.0791C3.71277 10.3827 3.95883 10.6288 4.26245 10.6289H8.96655C9.19349 11.2723 9.80506 11.7343 10.5261 11.7344C11.4402 11.7343 12.1813 10.9932 12.1814 10.0791C12.1813 9.16502 11.4402 8.42388 10.5261 8.42383ZM5.36792 3.26562C4.45383 3.26569 3.71275 4.00682 3.71265 4.9209C3.71273 5.835 4.45382 6.5761 5.36792 6.57617C6.08903 6.57611 6.7006 6.1142 6.92749 5.4707H11.6316C11.9352 5.47057 12.1813 5.2245 12.1814 4.9209C12.1813 4.61731 11.9352 4.37123 11.6316 4.37109H6.92749C6.70061 3.72757 6.08905 3.26569 5.36792 3.26562Z" fill="currentColor" fill-opacity="0.75"/>
</svg>
