<svg width="12" height="11" viewBox="0 0 12 11" fill="none" xmlns="http://www.w3.org/2000/svg">
<path d="M5.28566 10.4637L4.96747 10.7819L5.35934 11.1738L5.66241 10.7098L5.28566 10.4637ZM3.98036 9.1584L3.66216 9.47659L3.66216 9.47659L3.98036 9.1584ZM1.48389 6.66192L1.2378 6.28517L0.773814 6.58825L1.16569 6.98012L1.48389 6.66192ZM5.40103 8.37412C5.57677 8.19838 5.57677 7.91346 5.40103 7.73772C5.22529 7.56199 4.94037 7.56199 4.76463 7.73772L5.08283 8.05592L5.40103 8.37412ZM7.58634 6.94153L7.96309 7.18762L7.96309 7.18762L7.58634 6.94153ZM5.00606 4.36125L5.25215 4.73799L5.25215 4.73799L5.00606 4.36125ZM4.47054 4.71104L4.22445 4.3343L4.22445 4.3343L4.47054 4.71104ZM11.4453 0.462646L11.1271 0.144448L6.63962 4.63195L6.95781 4.95014L7.27601 5.26834L11.7635 0.780845L11.4453 0.462646ZM6.05939 4.47054L5.74119 4.78874L7.15885 6.20639L7.47705 5.8882L7.79525 5.57L6.37759 4.15234L6.05939 4.47054ZM5.28566 10.4637L5.60386 10.1455L4.29856 8.8402L3.98036 9.1584L3.66216 9.47659L4.96747 10.7819L5.28566 10.4637ZM3.98036 9.1584L4.29856 8.8402L1.80208 6.34372L1.48389 6.66192L1.16569 6.98012L3.66216 9.47659L3.98036 9.1584ZM3.98036 9.1584L4.29856 9.47659L5.40103 8.37412L5.08283 8.05592L4.76463 7.73772L3.66216 8.8402L3.98036 9.1584ZM7.58634 6.94153L7.20959 6.69544L6.8598 7.23095L7.23654 7.47705L7.61329 7.72314L7.96309 7.18762L7.58634 6.94153ZM7.23654 7.47705L6.85979 7.23095L4.90892 10.2176L5.28566 10.4637L5.66241 10.7098L7.61329 7.72314L7.23654 7.47705ZM5.00606 4.36125L4.75996 3.9845L4.22445 4.3343L4.47054 4.71104L4.71663 5.08779L5.25215 4.73799L5.00606 4.36125ZM4.47054 4.71104L4.22445 4.3343L1.2378 6.28517L1.48389 6.66192L1.72998 7.03867L4.71663 5.08779L4.47054 4.71104ZM7.23654 7.47705L7.55474 7.15885L4.78874 4.39285L4.47054 4.71104L4.15234 5.02924L6.91834 7.79524L7.23654 7.47705ZM6.05939 4.47054L6.37759 4.15234C5.94599 3.72074 5.27098 3.65071 4.75996 3.9845L5.00606 4.36125L5.25215 4.73799C5.40664 4.63708 5.61071 4.65826 5.74119 4.78874L6.05939 4.47054ZM7.47705 5.8882L7.15885 6.20639C7.28933 6.33688 7.31051 6.54095 7.20959 6.69544L7.58634 6.94153L7.96309 7.18762C8.29688 6.67661 8.22684 6.0016 7.79525 5.57L7.47705 5.8882Z" fill="#F7931A"/>
</svg>
