<svg width="12" height="11" viewBox="0 0 12 11" fill="none" xmlns="http://www.w3.org/2000/svg">
<g clip-path="url(#clip0_80_1548)">
<path d="M2.68363 4.14196C2.35941 4.31746 1.50933 4.67582 2.02709 5.12424C2.28001 5.3433 2.56169 5.49996 2.91584 5.49996H4.9367C5.29084 5.49996 5.57253 5.3433 5.82545 5.12424C6.34321 4.67582 5.49313 4.31746 5.16891 4.14196C4.40862 3.7304 3.44392 3.73041 2.68363 4.14196Z" stroke="#F7931A" stroke-width="0.9"/>
<path d="M4.95752 1.95829C4.95752 2.53359 4.49581 2.99996 3.92627 2.99996C3.35673 2.99996 2.89502 2.53359 2.89502 1.95829C2.89502 1.383 3.35673 0.916626 3.92627 0.916626C4.49581 0.916626 4.95752 1.383 4.95752 1.95829Z" stroke="#F7931A" stroke-width="0.9"/>
<path d="M2.78076 6.875C2.78076 8.39536 4.0104 9.625 5.53076 9.625L5.1379 8.83929" stroke="#F7931A" stroke-width="0.9" stroke-linecap="round" stroke-linejoin="round"/>
<path d="M10.1138 4.125C10.1138 2.60464 8.88413 1.375 7.36377 1.375L7.75663 2.16071" stroke="#F7931A" stroke-width="0.9" stroke-linecap="round" stroke-linejoin="round"/>
<path d="M7.72562 8.72533C7.4014 8.90083 6.55132 9.25919 7.06908 9.70762C7.322 9.92667 7.60369 10.0833 7.95784 10.0833H9.97869C10.3328 10.0833 10.6145 9.92667 10.8674 9.70762C11.3852 9.25919 10.5351 8.90083 10.2109 8.72533C9.45061 8.31378 8.48591 8.31378 7.72562 8.72533Z" stroke="#F7931A" stroke-width="0.9"/>
<path d="M9.99951 6.54167C9.99951 7.11696 9.53781 7.58333 8.96826 7.58333C8.39872 7.58333 7.93701 7.11696 7.93701 6.54167C7.93701 5.96637 8.39872 5.5 8.96826 5.5C9.53781 5.5 9.99951 5.96637 9.99951 6.54167Z" stroke="#F7931A" stroke-width="0.9"/>
</g>
<defs>
<clipPath id="clip0_80_1548">
<rect width="11" height="11" fill="white" transform="translate(0.947266)"/>
</clipPath>
</defs>
</svg>
