<svg width="10" height="13" viewBox="0 0 10 13" fill="none" xmlns="http://www.w3.org/2000/svg">
<path d="M5.70564 12.2186H5.19003C3.09346 11.996 1.86187 9.71257 2.94507 7.85267C4.04986 5.9552 6.82453 5.94706 7.94184 7.83827C9.01972 9.66279 7.81349 12.0474 5.70564 12.2186ZM5.6086 7.92686C5.50654 7.95911 5.12022 8.002 5.09643 7.87176C5.07263 7.74153 5.14589 7.44037 4.87947 7.46666C4.60586 7.49327 4.74705 7.84703 4.67536 7.91935C4.58958 8.00607 4.30469 7.87239 4.25742 8.08809C4.20295 8.3376 4.47531 8.37172 4.65971 8.35544L4.69477 8.39051L4.6932 10.2338C4.65157 10.3756 4.31127 10.1962 4.25773 10.431C4.19825 10.6925 4.47969 10.7144 4.67129 10.6987C4.74267 10.7432 4.59177 11.2434 4.96244 11.1592C5.20255 11.1048 4.98686 10.7228 5.20068 10.6943C5.31338 10.6793 5.47335 10.6987 5.58981 10.7056C5.64961 10.7472 5.54097 11.1091 5.7692 11.1595C6.05126 11.2218 6.04281 10.8615 6.03655 10.6752C6.66017 10.5134 6.83298 9.78927 6.4116 9.32061C6.83392 8.83192 6.65923 8.15289 6.04406 7.95473C6.01495 7.80101 6.07568 7.53867 5.88566 7.47918C5.62174 7.39654 5.59482 7.74466 5.60828 7.92718L5.6086 7.92686Z" fill="url(#paint0_linear_362_928)"/>
<path d="M5.16186 0.227422C7.48008 0.0834135 9.56163 1.72354 9.93981 4.01234C10.0156 4.47035 10.0578 4.96968 9.51498 5.1428C9.11583 5.27022 8.9618 5.05327 8.63434 4.91928C7.8664 4.60465 6.96008 4.69419 6.27416 5.15971C5.90569 5.40985 5.79487 5.7276 5.2636 5.61866C5.0407 5.57295 4.8178 5.29307 4.62089 5.15971C3.91399 4.6801 2.99829 4.60246 2.21438 4.94307C1.8985 5.08051 1.74667 5.27241 1.36348 5.13623C0.909225 4.975 0.876354 4.59182 0.928322 4.17231C1.19286 2.03379 3.02271 0.360473 5.16186 0.227422Z" fill="url(#paint1_linear_362_928)"/>
<path d="M2.27793 5.35725C2.34555 5.34254 2.40879 5.35224 2.46013 5.39952L3.45598 6.44201C3.59123 6.64018 3.34923 6.85807 3.16296 6.71187L2.16648 5.66969C2.09291 5.56606 2.15114 5.3848 2.27793 5.35725Z" fill="url(#paint2_linear_362_928)"/>
<path d="M8.5113 5.35725C8.70321 5.31468 8.82155 5.51065 8.7292 5.66969L7.73272 6.71187C7.54488 6.85838 7.30476 6.63861 7.43969 6.44201C7.71487 6.1709 7.9672 5.87506 8.23581 5.598C8.29373 5.5382 8.44212 5.37228 8.5113 5.35725Z" fill="url(#paint3_linear_362_928)"/>
<path d="M5.13149 8.352H5.97519C6.08633 8.352 6.22126 8.54485 6.2391 8.65066C6.28356 8.91457 6.11638 9.10335 5.85904 9.12652C5.76387 9.13497 5.19504 9.13747 5.1437 9.11337C5.13274 9.10805 5.09643 9.07079 5.09643 9.06672V8.38706L5.13149 8.352Z" fill="url(#paint4_linear_362_928)"/>
<path d="M5.13149 9.52379H5.97519C6.07506 9.52379 6.23034 9.7373 6.24286 9.84249C6.27667 10.1271 6.10511 10.2783 5.83556 10.2983C5.73695 10.3055 5.19755 10.3105 5.1437 10.2852C5.13274 10.2798 5.09643 10.2426 5.09643 10.2385V9.55886L5.13149 9.52379Z" fill="url(#paint5_linear_362_928)"/>
<defs>
<linearGradient id="paint0_linear_362_928" x1="5.44705" y1="0.218628" x2="5.44705" y2="12.2186" gradientUnits="userSpaceOnUse">
<stop stop-color="#F7931A"/>
<stop offset="0.5" stop-color="#C47515"/>
</linearGradient>
<linearGradient id="paint1_linear_362_928" x1="5.44705" y1="0.218628" x2="5.44705" y2="12.2186" gradientUnits="userSpaceOnUse">
<stop stop-color="#F7931A"/>
<stop offset="0.5" stop-color="#C47515"/>
</linearGradient>
<linearGradient id="paint2_linear_362_928" x1="5.44705" y1="0.218628" x2="5.44705" y2="12.2186" gradientUnits="userSpaceOnUse">
<stop stop-color="#F7931A"/>
<stop offset="0.5" stop-color="#C47515"/>
</linearGradient>
<linearGradient id="paint3_linear_362_928" x1="5.44705" y1="0.218628" x2="5.44705" y2="12.2186" gradientUnits="userSpaceOnUse">
<stop stop-color="#F7931A"/>
<stop offset="0.5" stop-color="#C47515"/>
</linearGradient>
<linearGradient id="paint4_linear_362_928" x1="5.44705" y1="0.218628" x2="5.44705" y2="12.2186" gradientUnits="userSpaceOnUse">
<stop stop-color="#F7931A"/>
<stop offset="0.5" stop-color="#C47515"/>
</linearGradient>
<linearGradient id="paint5_linear_362_928" x1="5.44705" y1="0.218628" x2="5.44705" y2="12.2186" gradientUnits="userSpaceOnUse">
<stop stop-color="#F7931A"/>
<stop offset="0.5" stop-color="#C47515"/>
</linearGradient>
</defs>
</svg>
